# Blender 4.4.0
# www.blender.org
mtllib MiR100_LED.mtl
o MiR100.001
v -41.838436 14.077992 21.872456
v -41.759087 14.077992 21.058357
v -37.884605 14.077992 23.779354
v -39.824806 14.077992 23.988655
v -37.884605 17.077993 23.779354
v -19.054564 17.077993 21.748257
v -41.665787 17.077995 20.101154
v -39.582546 17.077995 -1.272147
v -39.582546 17.077997 -24.698647
v 21.067337 17.077997 -24.698647
v 37.984833 17.077999 -26.597616
v 39.840736 17.077997 -24.551556
v 37.964333 17.077995 -1.645948
v 37.964333 17.077993 21.748257
v -19.054564 21.377993 21.748257
v -39.824806 21.377993 23.988655
v 37.964333 21.377993 21.748257
v 37.964333 21.377995 -1.645947
v 39.840736 21.377996 -24.551556
v 37.984833 21.377998 -26.597616
v 21.067337 21.377996 -24.698645
v -39.582546 21.377996 -24.698645
v -39.582546 21.377995 -1.272146
v -41.838436 21.377993 21.872456
v -41.665787 14.077992 20.101154
vn 0.1072 -0.0000 0.9942
vn 0.1073 -0.0000 0.9942
vn -0.0000 -0.0000 1.0000
vn 1.0000 -0.0000 -0.0000
vn 0.9967 -0.0000 0.0816
vn -0.9953 -0.0000 -0.0970
vn -1.0000 -0.0000 -0.0000
vn -0.0000 -0.0000 -1.0000
vn -0.1115 -0.0000 -0.9938
vn -0.1092 -0.0000 -0.9940
vt 2.620980 9.064000
vt 3.389270 6.189990
vt 3.389270 7.371090
vt 10.634500 9.064000
vt 33.082901 7.371090
vt 33.082901 9.064000
vt 2.540990 9.064000
vt 11.751300 7.371090
vt 11.751300 9.064000
vt 23.461300 9.064000
vt 14.413100 7.371090
vt 23.461300 7.371090
vt -2.641800 9.064000
vt -3.342490 7.371090
vt -2.963820 6.189990
vt -20.827200 9.064000
vt -11.604100 7.371090
vt -11.604100 9.064000
vt -26.430500 9.064000
vt -2.552620 7.371090
vt -2.552620 9.064000
vt -28.588800 9.064000
vt -35.291100 7.371090
vt -28.588800 7.371090
vt 10.845700 7.371090
vt 10.845700 9.064000
vt 2.620980 6.189990
vt 10.634500 7.371090
vt 2.540990 7.371090
vt 14.413100 9.064000
vt -11.797000 9.064000
vt -11.797000 7.371090
vt -3.342490 6.189990
vt -2.641800 6.189990
vt -20.827200 7.371090
vt -26.430500 7.371090
vt -35.291100 9.064000
s 1
g MiR100.001_LED
usemtl LED
f 16/1/1 3/2/2 5/3/2
f 15/4/3 14/5/3 17/6/3
f 17/7/4 13/8/4 18/9/4
f 19/10/5 13/11/5 12/12/5
f 24/13/6 7/14/6 2/15/6
f 22/16/7 8/17/7 23/18/7
f 21/19/8 9/20/8 22/21/8
f 21/22/9 11/23/10 10/24/9
f 6/25/1 15/26/1 16/1/1
f 16/1/1 4/27/2 3/2/2
f 5/3/2 6/25/1 16/1/1
f 15/4/3 6/28/3 14/5/3
f 17/7/4 14/29/4 13/8/4
f 19/10/5 18/30/5 13/11/5
f 24/13/6 23/31/6 8/32/6
f 7/14/6 25/33/6 2/15/6
f 24/13/6 8/32/6 7/14/6
f 2/15/6 1/34/6 24/13/6
f 22/16/7 9/35/7 8/17/7
f 21/19/8 10/36/8 9/20/8
f 21/22/9 20/37/10 11/23/10
